<?xml version="1.0" encoding="UTF-8"?>
<svg id="Capa_1" data-name="Capa 1" xmlns="http://www.w3.org/2000/svg" viewBox="0 0 4535.43 793.82">
  <defs>
    <style>
      .cls-1 {
        opacity: .6;
      }

      .cls-1, .cls-2 {
        fill: #1e1e1c;
      }
    </style>
  </defs>
  <path class="cls-2" d="M569.84,75.48v10.11c0,40.46-10.11,50.58-50.59,50.58h-174.21v593.58c0,41.59-10.11,51.71-51.71,51.71h-15.72c-41.59,0-51.71-10.11-51.71-51.71V136.18H50.57C10.11,136.18,0,126.06,0,85.6v-10.11C0,35.02,10.11,24.9,50.57,24.9h468.69c40.47,0,50.59,10.11,50.59,50.58ZM964.34,211.61c-82.05,0-141.63,26.98-174.22,69.69V62.04c0-40.46-10.11-50.58-50.57-50.58h-14.62c-40.46,0-50.57,10.11-50.57,50.58v668.84c0,40.46,10.11,50.58,50.57,50.58h14.62c40.46,0,50.57-10.11,50.57-50.58v-269.75c0-106.77,51.71-141.62,138.26-141.62s119.13,30.35,119.13,104.53v306.84c0,40.46,10.11,50.58,50.59,50.58h14.6c40.46,0,50.59-10.11,50.59-50.58v-324.83c0-141.61-86.55-194.45-198.94-194.45ZM1355.47,0c-39.34,0-71.93,31.48-71.93,70.81s32.6,70.81,71.93,70.81,70.81-31.47,70.81-70.81S1394.81,0,1355.47,0ZM1362.21,223.97h-14.6c-40.47,0-50.59,10.11-50.59,50.58v456.33c0,40.46,10.11,50.58,50.59,50.58h14.6c40.47,0,50.59-10.11,50.59-50.58v-456.33c0-40.46-10.11-50.58-50.59-50.58ZM1791.56,211.61c-168.6,0-245.02,79.8-245.02,218.05v301.22c0,40.46,10.11,50.58,50.57,50.58h14.6c40.47,0,50.59-10.11,50.59-50.58v-301.22c0-70.81,23.6-110.15,129.26-110.15s128.13,39.35,128.13,110.15v301.22c0,40.46,10.11,50.58,50.57,50.58h14.62c40.46,0,50.57-10.11,50.57-50.58v-301.22c0-140.5-68.56-218.05-243.89-218.05ZM2232.14,11.29h-13.5c-40.46,0-50.57,10.11-50.57,50.58v669.01c0,40.46,10.11,50.58,50.57,50.58h13.5c40.46,0,50.57-10.11,50.57-50.58V61.87c0-40.46-10.11-50.58-50.57-50.58ZM2456.92,526.32c-11.23-12.37-21.35-25.85-21.35-39.34,0-14.61,10.11-28.1,22.48-40.46l156.22-175.34c33.73-38.22,29.22-47.21-21.35-47.21h-19.11c-50.57,0-70.81,8.99-104.53,47.21l-103.39,116.89c-35.98,39.34-44.96,60.69-44.96,95.54s8.98,61.82,44.96,103.4l125.88,147.24c33.71,38.21,53.94,47.21,104.53,47.21h19.11c50.57,0,55.08-9,21.35-47.21l-179.83-207.93ZM2813.21,0c-39.34,0-71.93,31.48-71.93,70.81s32.6,70.81,71.93,70.81,70.81-31.47,70.81-70.81S2852.55,0,2813.21,0ZM2819.96,223.97h-14.6c-40.47,0-50.59,10.11-50.59,50.58v456.33c0,40.46,10.11,50.58,50.59,50.58h14.6c40.47,0,50.59-10.11,50.59-50.58v-456.33c0-40.46-10.11-50.58-50.59-50.58ZM3507.81,454.39v96.66c0,152.86-80.93,242.78-256.27,242.78s-258.51-85.43-258.51-242.78v-96.66c0-153.98,82.05-242.78,258.51-242.78s256.27,85.43,256.27,242.78ZM3392.04,454.39c0-87.67-25.85-134.88-140.5-134.88s-142.73,47.21-142.73,134.88v96.66c0,87.67,26.97,133.75,142.73,133.75s140.5-46.08,140.5-133.75v-96.66ZM3862.97,211.61c-168.6,0-245.02,79.8-245.02,218.05v301.22c0,40.46,10.11,50.58,50.57,50.58h14.6c40.47,0,50.59-10.11,50.59-50.58v-301.22c0-70.81,23.6-110.15,129.26-110.15s128.13,39.35,128.13,110.15v301.22c0,40.46,10.11,50.58,50.57,50.58h14.62c40.46,0,50.57-10.11,50.57-50.58v-301.22c0-140.5-68.56-218.05-243.89-218.05Z"/>
  <path class="cls-1" d="M4490.47,388.07c35.98,39.34,44.96,60.69,44.96,95.54,0,33.71-8.98,61.82-44.96,103.4l-125.88,147.24c-33.71,38.21-53.94,47.21-104.53,47.21h-19.11c-50.57,0-55.08-9-21.35-47.21l179.83-207.93c11.23-12.37,21.35-25.85,21.35-39.34,0-14.61-10.11-28.1-22.48-40.46l-156.22-175.34c-33.73-38.22-29.22-47.21,21.35-47.21h19.11c50.57,0,70.81,8.99,104.53,47.21l103.39,116.89Z"/>
</svg>